<svg xmlns="http://www.w3.org/2000/svg" viewBox="0 0 495.87 652"><defs><style>.cls-1{fill:#fff;}.cls-1,.cls-2,.cls-3,.cls-4,.cls-5,.cls-6,.cls-7{fill-rule:evenodd;}.cls-2{fill:#fefefe;}.cls-3{fill:#2b3b4d;}.cls-4{fill:#8abf37;}.cls-5{fill:#8bbf37;}.cls-6{fill:#8cc039;}.cls-7{fill:#bcda8c;}</style></defs><title>Asset 2</title><g id="Layer_2" data-name="Layer 2"><g id="Layer_1-2" data-name="Layer 1"><path class="cls-1" d="M364,0c11.21,5.24,11,15.45,11,25.48,0,40.17.11,80.33-.11,120.49,0,4.65,1.52,6.38,5.64,8.14,63.9,27.41,103.18,75,113.38,144.05,12.46,84.37-34.92,163.9-114.3,195.11-3.44,1.35-4.71,2.91-4.7,6.76.17,41.16.11,82.33.1,123.49,0,2.5-.18,5-.1,7.5.28,9-2.05,16.69-10.89,21H291c-7-1.94-10.84-6.35-11.56-13.78-.84-8.77-1-17.59-1.78-26.36s-.8-17.59-1.8-26.36c-.4-3.44-1.91-4.84-5.16-5.54-29.94-6.54-57.59-18.62-83.44-34.92-2.83-1.78-4.89-1.87-7.49.49-12.09,11-24.42,21.64-36.56,32.52-9.17,8.23-18.58,8.4-27.54-.2Q94.94,558,75.05,537.22c-8.63-9-8.41-18.18-.08-27.46,10.9-12.13,21.52-24.51,32.49-36.58,2.24-2.48,2.55-4.65.75-7.57C92,439.49,80,411.67,73.65,381.49c-.56-2.65-1.82-4-4.66-4.2q-23.61-1.91-47.28-2.93A66.3,66.3,0,0,1,10.33,373C4.57,371.69,1.49,367.5,0,362V289c1.94-7,6.38-10.72,13.78-11.59,7.79-.92,15.61-.89,23.4-1.6,10.42-.95,20.92-1.08,31.36-2,3.16-.29,4.72-1.42,5.4-4.6,6.23-29.15,17.9-56.11,33.46-81.43,2.31-3.76,1.61-6.22-1.15-9.2-11.78-12.69-23.1-25.8-34.61-38.73-6.89-7.75-6.77-17.31,1.15-25.7C85.93,100.19,99.46,86.6,113.45,73.5c8.82-8.26,18.48-8.89,25.67-2.55,3.37,3,6.77,5.92,10.15,8.87q15,13.16,30,26.39c2.87,2.54,5.12,2.58,8.35.53,25.57-16.13,53-28.08,82.56-34.57,3.63-.79,5.39-2.29,5.84-6.11.91-7.78.85-15.61,1.55-23.4.83-9.43,1.19-18.91,1.87-28.36C280,6.58,283.78,2.05,291,0Z"/><path class="cls-2" d="M490,322.38c1,85.05-59.9,161.37-145.32,176.16C264.17,512.47,188,470.36,155.24,398.26,123.28,328,138,249.94,192.6,195.77c28.64-28.38,63.41-44.7,103.63-48.9,93.85-9.81,172.44,52,190.46,141.08C489.07,299.71,490.48,311.61,490,322.38Z"/><path class="cls-3" d="M245.47,313.41c-4.72,16.1-9.18,31-13.43,46.06-.93,3.27-2.14,5.14-6,4.62-4.24-.56-9.6,1.66-12.54-.89-2.69-2.32-2.9-7.54-4.14-11.5q-9-28.79-17.93-57.57c-.39-1.25-.64-2.55-1.05-4.25,5.09,0,9.89.1,14.7,0,2.66-.07,2.72,1.73,3.2,3.52Q214.59,317.21,221,341c.29,1.11.69,2.18,1.4,4.38,4.36-15.05,8.43-29.07,12.49-43.08a37.29,37.29,0,0,0,1.42-5.29c.75-5.68,3.46-7.7,9.5-7.42,5.08.24,7.31,1.31,8.68,6.54,4.22,16.23,9.18,32.26,14.21,49.6,2.92-10.85,5.56-20.59,8.17-30.34,2-7.54,4.11-15.07,5.93-22.66.54-2.25,1.5-3,3.71-2.93,4.48.13,9,0,13.42,0,.89,1.52.08,2.73-.28,3.89C292.78,316,285.84,338.18,279,360.4c-.76,2.44-1.57,4-4.68,3.71-4.46-.41-9.86,1.25-13.2-.74s-3.12-8-4.4-12.2C253,339,249.43,326.74,245.47,313.41Z"/><path class="cls-4" d="M307,445.58c0,12-.19,24,.1,35.95.11,4.52-1.3,4.81-5.15,3.73-18.82-5.3-32-17.82-42.88-33.23-9.38-13.27-16-27.93-21.32-43.22-1.15-3.27-.49-3.95,2.81-3.93q31.2.17,62.42,0c3.38,0,4.13,1.09,4.09,4.26C306.88,421.27,307,433.42,307,445.58Z"/><path class="cls-4" d="M322,445.48c0-12.15.12-24.31-.08-36.46-.05-3.32,1-4.18,4.2-4.16,20.8.14,41.61.07,62.42.08,2,0,4.25-.5,3,3-8.64,24.4-19.73,47.28-40.1,64.35A63.46,63.46,0,0,1,326,485.55c-3,.78-4.11.29-4.06-3.12C322.13,470.12,322,457.8,322,445.48Z"/><path class="cls-4" d="M322,202.88c0-11.81.11-23.63-.07-35.43-.05-3.53.53-4.59,4.37-3.59,15.49,4,27.34,13.31,37.36,25.26,12.54,15,20.84,32.29,27.34,50.56.92,2.58.2,3.11-2.3,3.1-21.12-.07-42.25-.1-63.37,0-3.2,0-3.38-1.52-3.37-4C322.06,226.83,322,214.85,322,202.88Z"/><path class="cls-4" d="M307,203.05c0,11.84-.12,23.67.08,35.5.05,3.29-.86,4.28-4.16,4.26-20.67-.13-41.33-.1-62,0-2.67,0-4-.16-2.83-3.47,7.09-19.55,16.09-38,30.19-53.57,9.33-10.29,20.33-18.13,34-21.78,3.71-1,4.9-.6,4.8,3.6C306.8,179.38,307,191.22,307,203.05Z"/><path class="cls-3" d="M372.75,307.87c-8.36-4.11-16.59-6.15-25.46-5-16.06,2-24.3,13.67-21.38,30.32,2.77,15.75,18.68,20.13,30.37,17.93,2.71-.5,3-1.92,3-4.16-.08-6.5.1-13-.09-19.49-.08-2.86.87-3.62,3.68-3.68,11.56-.25,11.55-.35,11.55,11.2,0,7.33-.14,14.67.08,22,.08,2.87-1,4.13-3.58,5a61.13,61.13,0,0,1-34,1.89c-19.51-4.63-30.76-22.26-27.66-43,3.15-21,19.94-33.84,42.65-32.48a62.19,62.19,0,0,1,17.57,3.41c2.4.87,3.44,2,3.28,4.65C372.59,300.05,372.75,303.68,372.75,307.87Z"/><path class="cls-3" d="M391.11,343.83c10.5,6.15,21,8.71,32.27,7.23,3.76-.5,7.58-1.27,8.26-5.79s-2.46-6.71-6-8.2c-5-2.15-10.19-4-15.34-5.91-4.88-1.79-9.56-3.89-13.4-7.5-9.58-9-8.35-24.26,3.1-30.72,13.26-7.48,26.95-5.32,40.41.13a2.94,2.94,0,0,1,1.83,3.19c0,3.81,0,7.63,0,12.14a48.08,48.08,0,0,0-17.75-5.93,32.88,32.88,0,0,0-11.41.57c-2.9.7-5.42,2-6,5.27s1.5,5.22,4.13,6.73c4.65,2.68,9.82,4.06,14.83,5.82a52.17,52.17,0,0,1,13,6.17c7.1,5,10,11.86,8.67,20.38-1.25,8.25-6.12,13.61-14,15.85-13.65,3.87-27,2.56-39.95-3.12-1.84-.81-2.9-1.81-2.77-4.07C391.26,352.27,391.11,348.44,391.11,343.83Z"/><path class="cls-4" d="M175.09,404.94c15,0,29.15.06,43.27-.06,3.15,0,3.26,2.18,3.91,4.17a202.29,202.29,0,0,0,21.53,46.5c4.73,7.4,10.27,14.18,15.83,21C223.23,463,195.37,439.33,175.09,404.94Z"/><path class="cls-4" d="M369.76,476.27c17.6-19.68,29-42.56,36.91-67.36,1-3.14,2.4-4.09,5.59-4.05,13.59.17,27.2.07,41.66.07C433.83,439.05,406.13,462.76,369.76,476.27Z"/><path class="cls-5" d="M369.25,173.06c36.32,12.87,63.67,36.19,83.79,69.67-15.05,0-29.13,0-43.22,0-3.19,0-3.05-2.64-3.68-4.5-7-20.63-16.23-40-30-57.06C373.88,178.43,371.54,175.76,369.25,173.06Z"/><path class="cls-5" d="M175.93,242.74c20.26-33.7,47.78-57,83.76-70.26-4.13,5.6-8.76,10.76-12.7,16.44a185.71,185.71,0,0,0-24.1,49.62c-1,3.24-2.54,4.35-6,4.29C203.6,242.61,190.3,242.74,175.93,242.74Z"/><path class="cls-5" d="M229.23,381c26.17,0,50.42.07,74.67-.06,4,0,3,2.54,3.07,4.66s.64,4.55-3.22,4.53c-22.77-.15-45.54,0-68.3-.1C229,390,232.75,384.09,229.23,381Z"/><path class="cls-5" d="M398.38,381.21c-.09.88-.18,1.53-.22,2.19-.29,5.11-2.44,7-8.05,6.84-21.09-.44-42.21-.25-63.31-.11-3.42,0-5.06-.41-4.94-4.49.11-3.62.86-4.77,4.69-4.73,22.6.19,45.21.09,67.81.1C395.66,381,397,381.14,398.38,381.21Z"/><path class="cls-4" d="M359.83,267c-11.32,0-22.65-.2-34,.1-4.27.11-3.77-2.19-3.92-5-.16-3.08.53-4.35,4-4.33,22.31.16,44.62.07,66.93.09,2.82,0,6.33,5.84,5,8.26-.83,1.47-2.38.79-3.58.8C382.8,267,371.31,267,359.83,267Z"/><path class="cls-4" d="M268.9,267c-11.14,0-22.29.08-33.43-.1-1.45,0-4.88,1.71-4.24-1.92.48-2.71-.68-7.27,4.74-7.11,4.82.14,9.65,0,14.47,0,17.47,0,34.94.11,52.4-.09,3.79-.05,4.25,1.44,4.24,4.64s-.45,4.73-4.24,4.64C291.53,266.83,280.21,267,268.9,267Z"/><path class="cls-6" d="M439,267c-7.33,0-14.66-.09-22,0-5.81.11-4.19-4.81-4.77-7.58-.73-3.44,2.73-2,4.26-2,13.16-.14,26.32-.09,39.48-.07,4,0,8.11,4.22,7.95,8.14-.09,2.32-1.87,1.44-2.94,1.45C453.66,267,446.33,267,439,267Z"/><path class="cls-6" d="M190.07,267c-7.32,0-14.65-.07-22,0-2.75,0-3.42-.52-2.45-3.39,1.49-4.43,3.57-6.63,8.83-6.44,12.64.47,25.31.09,38,.24,1.54,0,5-1.43,4.31,1.92-.6,2.72,1.16,7.73-4.68,7.66C204.73,266.93,197.4,267,190.07,267Z"/><path class="cls-5" d="M164.57,381c16,0,32-.06,47.88,0,5,0,3.36,4.69,4,7.2.73,3-2.42,1.74-3.82,1.75-12.48.12-25,.07-37.43.07C166.66,390.06,166.66,390.06,164.57,381Z"/><path class="cls-5" d="M464.63,381c-2.71,9.06-2.71,9.06-11.15,9.06-12.31,0-24.62.05-36.93-.07-1.44,0-4.6,1.2-4-1.61.57-2.6-1.11-7.38,4.33-7.38h47.73Z"/><path class="cls-7" d="M154.2,316.16v-4.4C155.55,313.25,154.93,314.64,154.2,316.16Z"/><path class="cls-7" d="M154.46,337.85c-.54-2.34-.8-3.72.08-5.19C155.26,334.2,155.15,335.61,154.46,337.85Z"/></g></g></svg>